<?xml version="1.0" encoding="utf-8"?>
<!-- Generator: Adobe Illustrator 21.0.0, SVG Export Plug-In . SVG Version: 6.00 Build 0)  -->
<svg version="1.1" id="Layer_1" xmlns="http://www.w3.org/2000/svg" xmlns:xlink="http://www.w3.org/1999/xlink" x="0px" y="0px"
	 viewBox="0 0 1366 768" style="enable-background:new 0 0 1366 768;" xml:space="preserve">
<style type="text/css">
	.st0{fill:none;stroke:#393939;stroke-width:30;stroke-miterlimit:10;}
	.st1{fill:#8CC63F;stroke:#393939;stroke-width:30;stroke-miterlimit:10;}
</style>
<line class="st0" x1="1190.2" y1="169.3" x2="989.9" y2="213.3"/>
<line class="st0" x1="989.9" y1="213.3" x2="792" y2="83.8"/>
<line class="st0" x1="792" y1="83.8" x2="594.2" y2="213.3"/>
<line class="st0" x1="594.2" y1="213.3" x2="396.3" y2="271.9"/>
<line class="st0" x1="396.3" y1="271.9" x2="198.4" y2="325.6"/>
<g>
	<path class="st0" d="M232.6,684c0,2.2-1.8,4-4,4h-62.8c-2.2,0-4-1.8-4-4V417.3c0-2.2,1.8-4,4-4h62.8c2.2,0,4,1.8,4,4V684z"/>
</g>
<g>
	<path class="st0" d="M431,684c0,2.2-1.8,4-4,4h-62.8c-2.2,0-4-1.8-4-4V364.7c0-2.2,1.8-4,4-4H427c2.2,0,4,1.8,4,4V684z"/>
</g>
<circle class="st1" cx="396.3" cy="271.8" r="44"/>
<g>
	<path class="st0" d="M629.3,684c0,2.2-1.8,4-4,4h-62.8c-2.2,0-4-1.8-4-4V306.2c0-2.2,1.8-4,4-4h62.8c2.2,0,4,1.8,4,4V684z"/>
</g>
<circle class="st1" cx="594.2" cy="213.4" r="44"/>
<g>
	<path class="st0" d="M827.7,684c0,2.2-1.8,4-4,4h-62.8c-2.2,0-4-1.8-4-4V176.6c0-2.2,1.8-4,4-4h62.8c2.2,0,4,1.8,4,4V684z"/>
</g>
<circle class="st1" cx="792" cy="83.8" r="44"/>
<g>
	<path class="st0" d="M1026,684c0,2.2-1.8,4-4,4h-62.8c-2.2,0-4-1.8-4-4V306.2c0-2.2,1.8-4,4-4h62.8c2.2,0,4,1.8,4,4V684z"/>
</g>
<circle class="st1" cx="989.9" cy="213.4" r="44"/>
<g>
	<path class="st0" d="M1224.4,684c0,2.2-1.8,4-4,4h-62.8c-2.2,0-4-1.8-4-4V263.3c0-2.2,1.8-4,4-4h62.8c2.2,0,4,1.8,4,4V684z"/>
</g>
<circle class="st1" cx="1190.2" cy="170.5" r="44"/>
<circle class="st1" cx="198.4" cy="324.5" r="44"/>
<polyline class="st0" points="101,44 101,746 1320,746 "/>
</svg>
