<?xml version="1.0" encoding="utf-8"?>
<!-- Generator: Adobe Illustrator 21.0.1, SVG Export Plug-In . SVG Version: 6.00 Build 0)  -->
<svg version="1.1" id="Layer_1" xmlns="http://www.w3.org/2000/svg" xmlns:xlink="http://www.w3.org/1999/xlink" x="0px" y="0px"
	 viewBox="0 0 64 64" style="enable-background:new 0 0 64 64;" xml:space="preserve">
<style type="text/css">
	.st0{fill:#333333;}
	.st1{fill:#FAA31B;}
</style>
<path class="st0" d="M11.8,51.8L11.8,51.8L11.8,51.8 M11.7,52.8h3.6v4.9h-3.6L11.7,52.8L11.7,52.8z M10.8,50.8c-0.5,0-1,0.4-1,1v6.9
	c0,0.6,0.4,1,1,1h5.6l0,0c0.5,0,1-0.4,1-1v-6.9c0-0.6-0.4-1-1-1H10.8L10.8,50.8L10.8,50.8z"/>
<path class="st0" d="M36.9,48.7L36.9,48.7L36.9,48.7 M36.9,49.7h3.6v8.1h-3.6V49.7L36.9,49.7z M35.9,47.7c-0.5,0-1,0.4-1,1
	l-0.1,10.1c0,0.6,0.4,1,1,1h5.6l0,0c0.5,0,1-0.4,1-1l0.1-10.1c0-0.6-0.4-1-1-1L35.9,47.7L35.9,47.7L35.9,47.7z"/>
<path class="st0" d="M48.2,38.2L48.2,38.2L48.2,38.2 M48.2,39.2h3.6l-0.1,18.6h-3.6L48.2,39.2L48.2,39.2z M47.2,37.2
	c-0.5,0-1,0.4-1,1l-0.1,20.6c0,0.6,0.4,1,1,1h5.6l0,0c0.5,0,1-0.4,1-1l0.1-20.6c0-0.6-0.4-1-1-1L47.2,37.2L47.2,37.2L47.2,37.2z"/>
<path class="st0" d="M24.4,45.1L24.4,45.1L24.4,45.1 M24.4,46.1H28v11.7h-3.6V46.1L24.4,46.1z M23.4,44.1c-0.5,0-1,0.4-1,1
	l-0.1,13.7c0,0.6,0.4,1,1,1h5.6l0,0c0.5,0,1-0.4,1-1L30,45.1c0-0.6-0.4-1-1-1H23.4L23.4,44.1L23.4,44.1z"/>
<g>
	<path class="st1" d="M15.6,43.1c0,1.2-1,2.1-2.1,2.1c-1.2,0-2.1-1-2.1-2.1c0-1.2,0.9-2.1,2.1-2.1S15.6,42,15.6,43.1z"/>
</g>
<g>
	<path class="st1" d="M40.8,40c0,1.2-1,2.1-2.1,2.1s-2.1-1-2.1-2.1c0-1.2,1-2.1,2.1-2.1S40.8,38.8,40.8,40z"/>
</g>
<g>
	<path class="st1" d="M52.2,26.1c0,1.2-0.9,2.2-2.2,2.2s-2.2-0.9-2.2-2.2c0-1.2,1-2.2,2.2-2.2S52.2,25,52.2,26.1z"/>
</g>
<g>
	<path class="st1" d="M28.3,32.7c0,1.2-1,2.1-2.1,2.1c-1.2,0-2.1-1-2.1-2.1c0-1.2,1-2.1,2.1-2.1C27.3,30.5,28.3,31.5,28.3,32.7z"/>
</g>
<path class="st0" d="M57,9.5H6.5c-1.1,0-2,0.9-2,2V62c0,1.1,0.9,2,2,2H57c1.1,0,2-0.9,2-2V11.5C59,10.4,58.1,9.5,57,9.5z M57,62H6.5
	V19.6H57V62z M57,17.6H6.5v-6H57V17.6z"/>
<path class="st0" d="M50,22c-2.3,0-4.1,1.8-4.1,4.1c0,0.9,0.3,1.6,0.7,2.3l0,0L40.2,36l0,0c-0.5-0.2-0.9-0.3-1.4-0.3
	c-1.4,0-2.7,0.7-3.4,1.8L30,34.2c0.2-0.5,0.3-1,0.3-1.6c0-2.3-1.8-4.1-4.1-4.1s-4.1,1.9-4.1,4.1c0,0.6,0.1,1.1,0.3,1.6l-6.5,5.5
	c-0.7-0.5-1.5-0.7-2.3-0.7c-2.3,0-4.1,1.8-4.1,4.1s1.8,4.1,4.1,4.1s4.1-1.8,4.1-4.1c0-0.7-0.2-1.3-0.5-1.9l6.4-5.4
	c0.7,0.6,1.6,0.9,2.6,0.9s1.9-0.4,2.6-0.9l5.8,3.8c0,0.1,0,0.2,0,0.4c0,2.3,1.8,4.1,4.1,4.1c1.1,0,2.2-0.5,2.9-1.2
	c0.1-0.1,0.2-0.2,0.3-0.3c0.2-0.3,0.5-0.6,0.6-1c0.1-0.2,0.2-0.5,0.2-0.8s0.1-0.5,0.1-0.8s0-0.6-0.1-0.8c-0.1-0.3-0.1-0.5-0.2-0.8
	c-0.2-0.4-0.4-0.8-0.7-1.1l6.3-7.5c0.6,0.3,1.2,0.5,1.9,0.5c2.3,0,4.1-1.8,4.1-4.1C54.1,23.9,52.2,22,50,22z M13.5,45.2
	c-1.2,0-2.1-1-2.1-2.1c0-1.2,0.9-2.1,2.1-2.1s2.1,1,2.1,2.1C15.6,44.3,14.7,45.2,13.5,45.2z M26.2,34.8c-1.2,0-2.1-1-2.1-2.1
	c0-1.2,1-2.1,2.1-2.1c1.2,0,2.1,1,2.1,2.1C28.3,33.8,27.3,34.8,26.2,34.8z M38.7,42.1c-1.2,0-2.1-1-2.1-2.1c0-1.2,1-2.1,2.1-2.1
	s2.1,1,2.1,2.1S39.8,42.1,38.7,42.1z M50,28.3c-1.2,0-2.1-0.9-2.1-2.1s1-2.1,2.1-2.1c1.2,0,2.1,1,2.1,2.1S51.1,28.3,50,28.3z"/>
<path class="st0" d="M59,18.6c0,0.1,0,0.2-0.1,0.4v-0.7C59,18.3,59,18.4,59,18.6z"/>
<path class="st0" d="M11.2,15.5H9.6c-0.6,0-1-0.4-1-1s0.4-1,1-1h1.6c0.6,0,1,0.4,1,1S11.8,15.5,11.2,15.5z"/>
<path class="st0" d="M16.4,15.5h-1.6c-0.6,0-1-0.4-1-1s0.4-1,1-1h1.6c0.6,0,1,0.4,1,1S16.9,15.5,16.4,15.5z"/>
<path class="st0" d="M21.5,15.5h-1.6c-0.6,0-1-0.4-1-1s0.4-1,1-1h1.6c0.6,0,1,0.4,1,1S22.1,15.5,21.5,15.5z"/>
</svg>
